<?xml version="1.0" encoding="UTF-8" standalone="no"?>
<svg
   xmlns:dc="http://purl.org/dc/elements/1.1/"
   xmlns:cc="http://creativecommons.org/ns#"
   xmlns:rdf="http://www.w3.org/1999/02/22-rdf-syntax-ns#"
   xmlns:svg="http://www.w3.org/2000/svg"
   xmlns="http://www.w3.org/2000/svg"
   xmlns:sodipodi="http://sodipodi.sourceforge.net/DTD/sodipodi-0.dtd"
   xmlns:inkscape="http://www.inkscape.org/namespaces/inkscape"
   width="24"
   height="24"
   viewBox="0 0 24 24"
   version="1.1"
   id="svg4"
   sodipodi:docname="warning_Qalert.svg"
   inkscape:version="0.92.5 (2060ec1f9f, 2020-04-08)">
  <metadata
     id="metadata10">
    <rdf:RDF>
      <cc:Work
         rdf:about="">
        <dc:format>image/svg+xml</dc:format>
        <dc:type
           rdf:resource="http://purl.org/dc/dcmitype/StillImage" />
      </cc:Work>
    </rdf:RDF>
  </metadata>
  <defs
     id="defs8" />
  <sodipodi:namedview
     pagecolor="#ffffff"
     bordercolor="#666666"
     borderopacity="1"
     objecttolerance="10"
     gridtolerance="10"
     guidetolerance="10"
     inkscape:pageopacity="0"
     inkscape:pageshadow="2"
     inkscape:window-width="1920"
     inkscape:window-height="1102"
     id="namedview6"
     showgrid="false"
     inkscape:zoom="27.812867"
     inkscape:cx="-0.68887814"
     inkscape:cy="12.529751"
     inkscape:window-x="0"
     inkscape:window-y="0"
     inkscape:window-maximized="1"
     inkscape:current-layer="svg4" />
  <rect
     id="rect3715"
     width="24.053616"
     height="3.4156852"
     x="0"
     y="11.195748"
     style="stroke-width:0.6226998;fill:#ffcc00;stroke:#ffcc00;stroke-opacity:1" />
  <path
     style="fill:#ffcc00;stroke:#ffcc00;stroke-width:1px;stroke-linecap:butt;stroke-linejoin:miter;stroke-opacity:1"
     d="m 0,11.19576 c 4.0269132,-0.0045 4.0089158,-6.1347832 8.0358491,-6.1347832 3.9550039,0 4.0089359,6.1122842 7.9998949,6.1122842 3.990958,0 3.631413,-6.1122842 7.658326,-6.1122842 0.03595,0.2337048 -0.05393,5.1235302 -0.05393,6.2201482 -1.276388,-0.03596 -8.269554,-0.03595 -10.318965,-0.03595 -2.049414,0 -8.0897843,-0.0089 -13.321176,-0.04941 z"
     id="path3755"
     inkscape:connector-curvature="0"
     sodipodi:nodetypes="cssccsc" />
  <path
     style="stroke-width:0.01998989;fill:#ffcc00;stroke:#ffcc00;stroke-opacity:1"
     d="m 6.7675411,11.115109 c -1.8564898,-0.0073 -3.678584,-0.01456 -4.0490982,-0.01618 l -0.6736623,-0.0029 0.167185,-0.167009 C 2.7721011,10.369428 3.2601207,9.6732113 4.1524464,8.1606646 4.9917597,6.7379767 5.3485134,6.2228159 5.8489176,5.7109179 6.3768792,5.1708294 6.9260319,4.8615144 7.5571168,4.7487597 7.8215831,4.7015077 8.3180442,4.7012127 8.5723813,4.748156 c 0.659181,0.1216655 1.229907,0.463585 1.7975987,1.076934 0.437378,0.4725535 0.812069,1.0219963 1.578936,2.3153311 0.92937,1.5673972 1.278948,2.0655769 1.899941,2.7075809 l 0.279031,0.288471 -1.992456,-0.0041 c -1.09585,-0.0022 -3.5114013,-0.01002 -5.3678909,-0.0173 z"
     id="path3757"
     inkscape:connector-curvature="0" />
  <path
     style="stroke-width:0.01976037;fill:#ffcc00;stroke:#ffcc00;stroke-opacity:1"
     d="m 19.873037,10.937799 -1.799254,-0.0097 0.160883,-0.135775 c 0.558323,-0.471192 1.169905,-1.2581284 2.064291,-2.6561697 1.037569,-1.6218529 1.559877,-2.2433304 2.302047,-2.7391295 0.30253,-0.2021029 0.801215,-0.4064101 1.104828,-0.452639 l 0.08707,-0.013259 V 7.9439181 10.9567 l -1.06031,-0.0046 c -0.583168,-0.0025 -1.869973,-0.009 -2.859562,-0.01429 z"
     id="path3759"
     inkscape:connector-curvature="0" />
  <rect
     id="rect3715-3-5"
     width="24.053616"
     height="2.3370473"
     x="-4.7683716e-07"
     y="16.665291"
     style="stroke-width:0.51507872;fill:#ffcc00;stroke:#ffcc00;stroke-opacity:1" />
</svg>
