<?xml version="1.0" encoding="UTF-8" standalone="no"?>
<svg
   xmlns:dc="http://purl.org/dc/elements/1.1/"
   xmlns:cc="http://creativecommons.org/ns#"
   xmlns:rdf="http://www.w3.org/1999/02/22-rdf-syntax-ns#"
   xmlns:svg="http://www.w3.org/2000/svg"
   xmlns="http://www.w3.org/2000/svg"
   xmlns:sodipodi="http://sodipodi.sourceforge.net/DTD/sodipodi-0.dtd"
   xmlns:inkscape="http://www.inkscape.org/namespaces/inkscape"
   width="24"
   height="24"
   viewBox="0 0 24 24"
   version="1.1"
   id="svg4"
   sodipodi:docname="warning_Halert.svg"
   inkscape:version="0.92.5 (2060ec1f9f, 2020-04-08)">
  <metadata
     id="metadata10">
    <rdf:RDF>
      <cc:Work
         rdf:about="">
        <dc:format>image/svg+xml</dc:format>
        <dc:type
           rdf:resource="http://purl.org/dc/dcmitype/StillImage" />
        <dc:title></dc:title>
      </cc:Work>
    </rdf:RDF>
  </metadata>
  <defs
     id="defs8" />
  <sodipodi:namedview
     pagecolor="#ffffff"
     bordercolor="#666666"
     borderopacity="1"
     objecttolerance="10"
     gridtolerance="10"
     guidetolerance="10"
     inkscape:pageopacity="0"
     inkscape:pageshadow="2"
     inkscape:window-width="1920"
     inkscape:window-height="1102"
     id="namedview6"
     showgrid="false"
     inkscape:zoom="22.627417"
     inkscape:cx="17.575474"
     inkscape:cy="10.817593"
     inkscape:window-x="0"
     inkscape:window-y="0"
     inkscape:window-maximized="1"
     inkscape:current-layer="layer1" />
  <g
     inkscape:groupmode="layer"
     id="layer2"
     inkscape:label="Background"
     style="display:inline"
     sodipodi:insensitive="true">
    <rect
       style="opacity:1;fill:#ffcc00;fill-opacity:1;stroke:#800000;stroke-width:1.03638721;stroke-opacity:0"
       id="rect822"
       width="23.810976"
       height="23.8855"
       x="0.12132061"
       y="0.066397153"
       rx="2.0727744" />
  </g>
  <g
     inkscape:groupmode="layer"
     id="layer1"
     inkscape:label="Symbol"
     sodipodi:insensitive="true">
    <rect
       id="rect3715"
       width="18.726429"
       height="2.6592088"
       x="2.6635931"
       y="-13.966622"
       style="fill:#ffffff;fill-opacity:1;stroke:#ffffff;stroke-width:0.48478964;stroke-opacity:1"
       transform="scale(1,-1)" />
    <path
       style="fill:#ffffff;fill-opacity:1;stroke:#ffffff;stroke-width:0.78689462px;stroke-linecap:butt;stroke-linejoin:miter;stroke-opacity:1"
       d="m 2.4249402,13.815405 c 3.2043297,0.0035 3.1900087,4.773831 6.3943543,4.773831 3.1471095,0 3.1900245,-4.756324 6.3657455,-4.756324 3.175719,0 2.889618,4.756324 6.093948,4.756324 9.89e-4,-0.18186 -0.04292,-3.986919 -0.04292,-4.840259 -1.015659,0.02798 -6.58032,0.02798 -8.211095,0.02798 -1.630777,0 -6.4372722,0.007 -10.6000398,0.03845 z"
       id="path3755"
       inkscape:connector-curvature="0"
       sodipodi:nodetypes="cssccscc" />
    <path
       style="fill:#ffffff;fill-opacity:1;stroke:#ffffff;stroke-width:0.0155627;stroke-opacity:1"
       d="m 7.9323179,14.029411 c -1.4453306,0.0057 -2.8638831,0.01134 -3.1523391,0.0126 l -0.5244654,0.0023 0.1301583,0.130021 c 0.4360816,0.435623 0.8160188,0.977645 1.51072,2.155206 0.6534294,1.107603 0.9311724,1.508671 1.3207514,1.907198 0.4110333,0.420474 0.8385644,0.661285 1.3298821,0.749068 0.2058946,0.03679 0.5924038,0.03702 0.7904125,4.7e-4 0.5131913,-0.09472 0.9575183,-0.360915 1.3994823,-0.838424 0.340511,-0.367897 0.632219,-0.795654 1.229247,-1.802552 0.723541,-1.220264 0.995697,-1.60811 1.479158,-2.107925 l 0.217234,-0.224583 -1.551184,0.0032 c -0.853151,0.0017 -2.7337267,0.0078 -4.1790571,0.01347 z"
       id="path3757"
       inkscape:connector-curvature="0" />
    <path
       style="fill:#ffffff;fill-opacity:1;stroke:#ffffff;stroke-width:0.01538401;stroke-opacity:1"
       d="m 18.135322,14.167453 -1.400771,0.0075 0.125252,0.105704 c 0.434671,0.366834 0.910805,0.979485 1.60711,2.0679 0.807777,1.262659 1.214409,1.746497 1.79221,2.132491 0.235528,0.157343 0.623769,0.316402 0.86014,0.352392 l 0.06779,0.01032 v -2.345537 -2.345532 l -0.825481,0.0036 c -0.454013,0.002 -1.455828,0.007 -2.226251,0.01113 z"
       id="path3759"
       inkscape:connector-curvature="0" />
    <rect
       id="rect3715-3-5"
       width="18.681034"
       height="2.2601986"
       x="2.6862907"
       y="-9.074605"
       style="fill:#ffffff;fill-opacity:1;stroke:#ffffff;stroke-width:0.44639921;stroke-opacity:1"
       transform="scale(1,-1)" />
  </g>
</svg>
