<?xml version="1.0" encoding="UTF-8" standalone="no"?>
<svg
   xmlns:dc="http://purl.org/dc/elements/1.1/"
   xmlns:cc="http://creativecommons.org/ns#"
   xmlns:rdf="http://www.w3.org/1999/02/22-rdf-syntax-ns#"
   xmlns:svg="http://www.w3.org/2000/svg"
   xmlns="http://www.w3.org/2000/svg"
   xmlns:sodipodi="http://sodipodi.sourceforge.net/DTD/sodipodi-0.dtd"
   xmlns:inkscape="http://www.inkscape.org/namespaces/inkscape"
   width="24"
   height="24"
   viewBox="0 0 24 24"
   version="1.1"
   id="svg4"
   sodipodi:docname="drop_white.svg"
   inkscape:version="0.92.5 (2060ec1f9f, 2020-04-08)">
  <metadata
     id="metadata10">
    <rdf:RDF>
      <cc:Work
         rdf:about="">
        <dc:format>image/svg+xml</dc:format>
        <dc:type
           rdf:resource="http://purl.org/dc/dcmitype/StillImage" />
      </cc:Work>
    </rdf:RDF>
  </metadata>
  <defs
     id="defs8" />
  <sodipodi:namedview
     pagecolor="#ffffff"
     bordercolor="#666666"
     borderopacity="1"
     objecttolerance="10"
     gridtolerance="10"
     guidetolerance="10"
     inkscape:pageopacity="0"
     inkscape:pageshadow="2"
     inkscape:window-width="1920"
     inkscape:window-height="1102"
     id="namedview6"
     showgrid="false"
     inkscape:zoom="19.666667"
     inkscape:cx="14.414061"
     inkscape:cy="5.7769896"
     inkscape:window-x="0"
     inkscape:window-y="0"
     inkscape:window-maximized="1"
     inkscape:current-layer="layer3" />
  <g
     inkscape:groupmode="layer"
     id="layer1"
     inkscape:label="back"
     sodipodi:insensitive="true">
    <path
       d="M 12,0 C 7.13,7.197 4,11.699 4,16.075 4,20.453 7.579,24 12,24 16.421,24 20,20.453 20,16.075 20,11.699 16.87,7.197 12,0 Z M 11.973,5.12 C 12.44,5.845 13,7.107 13,8.44 13,12.348 9,12.988 9,10.61 9,8.977 10.988,6.566 11.973,5.12 Z"
       id="path2"
       inkscape:connector-curvature="0" />
    <path
       style="fill:#000000;fill-opacity:1;stroke:none;stroke-width:0.27178267;stroke-miterlimit:4;stroke-dasharray:none;stroke-opacity:1"
       d="M 10.026625,11.953277 C 9.8035655,11.909304 9.455411,11.711934 9.3382912,11.563057 8.7773943,10.850073 8.9574384,9.7910152 9.9154247,8.1682325 10.249564,7.6022167 10.459268,7.2893434 11.288416,6.1197574 l 0.683296,-0.9638479 0.108049,0.1728471 c 0.297138,0.4753344 0.608555,1.265165 0.763017,1.9351989 0.132453,0.5745596 0.163261,1.4467035 0.07067,2.0004613 -0.197723,1.1824732 -0.821026,2.0927522 -1.721533,2.5141502 -0.388377,0.181744 -0.809399,0.244867 -1.165286,0.17471 z"
       id="path860"
       inkscape:connector-curvature="0" />
    <path
       style="fill:#000000;fill-opacity:1;stroke:#000000;stroke-width:0.27178267;stroke-miterlimit:4;stroke-dasharray:none;stroke-opacity:1"
       d="M 9.8711402,11.889783 C 8.9983029,11.536144 8.8138602,10.620803 9.3516049,9.3114655 9.6516091,8.5809947 10.139538,7.7827232 11.237787,6.2255953 l 0.731953,-1.0377829 0.120034,0.1928502 c 0.27236,0.4375813 0.630242,1.3767399 0.750683,1.9699496 0.133141,0.6557659 0.126037,1.6975892 -0.0153,2.2437077 -0.282752,1.0925381 -0.922357,1.8854661 -1.798146,2.2291861 -0.35758,0.140339 -0.896768,0.171256 -1.1558718,0.06628 z"
       id="path862"
       inkscape:connector-curvature="0" />
  </g>
  <g
     inkscape:groupmode="layer"
     id="layer2"
     inkscape:label="front"
     sodipodi:insensitive="true">
    <path
       inkscape:connector-curvature="0"
       d="M 12.0417,2.5135392 C 7.949613,8.5629308 5.3195854,12.347059 5.3195854,16.025277 c 0,3.679899 3.0073061,6.661307 6.7221146,6.661307 3.714809,0 6.722116,-2.981408 6.722116,-6.661307 0,-3.678218 -2.630029,-7.4623462 -6.722116,-13.5117378 z M 12.01901,6.817122 c 0.392405,0.6093941 0.862951,1.67016 0.862951,2.7906045 0,3.2848455 -3.3610564,3.8227905 -3.3610564,1.8239795 0,-1.372608 1.6704454,-3.399158 2.4981054,-4.614584 z"
       id="path2-3"
       style="fill:#ffffff;stroke-width:0.84040397" />
    <path
       style="fill:#ffffff;fill-opacity:1;stroke:#ffffff;stroke-width:0.29256526;stroke-miterlimit:4;stroke-dasharray:none;stroke-opacity:1"
       d="M 10.026629,12.775631 C 9.3762951,12.534795 9.0747479,11.907977 9.1888326,11.034124 9.2774022,10.355708 9.7096384,9.2976539 10.329352,8.2422913 10.64126,7.7111163 12.019803,5.571754 12.072778,5.536666 c 0.04907,-0.032497 0.540575,1.0764308 0.685516,1.5466384 0.215064,0.6976916 0.298309,1.2436283 0.298917,1.9603354 7.93e-4,0.9365279 -0.175622,1.7120412 -0.540965,2.3780532 -0.229395,0.418184 -0.759556,0.967382 -1.118053,1.158205 -0.508878,0.270866 -0.985146,0.338833 -1.371564,0.195733 z"
       id="path870"
       inkscape:connector-curvature="0" />
  </g>
  <g
     inkscape:groupmode="layer"
     id="layer3"
     inkscape:label="blues">
    <ellipse
       style="fill:#000000;fill-opacity:1;stroke:none;stroke-width:22.17289543;stroke-miterlimit:4;stroke-dasharray:none;stroke-opacity:1"
       id="path822"
       cx="12.076271"
       cy="15.508473"
       rx="3.5338984"
       ry="3.6101694" />
  </g>
</svg>
