<?xml version="1.0" encoding="UTF-8" standalone="no"?>
<svg
   xmlns:dc="http://purl.org/dc/elements/1.1/"
   xmlns:cc="http://creativecommons.org/ns#"
   xmlns:rdf="http://www.w3.org/1999/02/22-rdf-syntax-ns#"
   xmlns:svg="http://www.w3.org/2000/svg"
   xmlns="http://www.w3.org/2000/svg"
   xmlns:sodipodi="http://sodipodi.sourceforge.net/DTD/sodipodi-0.dtd"
   xmlns:inkscape="http://www.inkscape.org/namespaces/inkscape"
   width="24"
   height="24"
   viewBox="0 0 24 24"
   version="1.1"
   id="svg4"
   sodipodi:docname="warning_Qmajorflood.svg"
   inkscape:version="0.92.5 (2060ec1f9f, 2020-04-08)">
  <metadata
     id="metadata10">
    <rdf:RDF>
      <cc:Work
         rdf:about="">
        <dc:format>image/svg+xml</dc:format>
        <dc:type
           rdf:resource="http://purl.org/dc/dcmitype/StillImage" />
        <dc:title></dc:title>
      </cc:Work>
    </rdf:RDF>
  </metadata>
  <defs
     id="defs8" />
  <sodipodi:namedview
     pagecolor="#ffffff"
     bordercolor="#666666"
     borderopacity="1"
     objecttolerance="10"
     gridtolerance="10"
     guidetolerance="10"
     inkscape:pageopacity="0"
     inkscape:pageshadow="2"
     inkscape:window-width="1920"
     inkscape:window-height="1102"
     id="namedview6"
     showgrid="false"
     inkscape:zoom="27.812867"
     inkscape:cx="-0.65292361"
     inkscape:cy="12.529751"
     inkscape:window-x="0"
     inkscape:window-y="0"
     inkscape:window-maximized="1"
     inkscape:current-layer="svg4" />
  <g
     id="g3879"
     style="fill:#800000;stroke:#800000;stroke-opacity:1">
    <rect
       style="stroke-width:0.6226998;fill:#800000;stroke:#800000;stroke-opacity:1"
       y="6.6923895"
       x="0"
       height="3.4156852"
       width="24.053616"
       id="rect3715" />
    <path
       sodipodi:nodetypes="cssccsc"
       inkscape:connector-curvature="0"
       id="path3755"
       d="m 0,6.6923895 c 4.0269132,-0.00452 4.0089158,-6.13477706 8.0358491,-6.13477706 3.9550039,0 4.0089359,6.11227896 7.9998949,6.11227896 3.990958,0 3.631413,-6.11227896 7.658326,-6.11227896 0.03595,0.23370478 -0.05393,5.12352796 -0.05393,6.22014276 -1.276388,-0.035955 -8.269554,-0.035954 -10.318965,-0.035954 -2.049414,0 -8.0897843,-0.00894 -13.321176,-0.049412 z"
       style="fill:#800000;stroke:#800000;stroke-width:1px;stroke-linecap:butt;stroke-linejoin:miter;stroke-opacity:1" />
    <path
       inkscape:connector-curvature="0"
       id="path3757"
       d="M 6.7675411,6.6117393 C 4.9110513,6.604459 3.0889571,6.5971779 2.7184429,6.5955589 L 2.0447806,6.5926158 2.2119656,6.4256065 C 2.7721011,5.8660598 3.2601207,5.1698469 4.1524464,3.6573002 4.9917597,2.2346123 5.3485134,1.7194515 5.8489176,1.2075535 6.3768792,0.66746502 6.9260319,0.35814999 7.5571168,0.2453953 7.8215831,0.1981436 8.3180442,0.1978484 8.5723813,0.24479157 c 0.659181,0.12166551 1.229907,0.46358505 1.7975987,1.07693403 0.437378,0.4725535 0.812069,1.0219963 1.578936,2.3153311 0.92937,1.5673972 1.278948,2.0655754 1.899941,2.7075756 l 0.279031,0.2884706 -1.992456,-0.00406 c -1.09585,-0.00223 -3.5114013,-0.010025 -5.3678909,-0.017299 z"
       style="stroke-width:0.01998989;fill:#800000;stroke:#800000;stroke-opacity:1" />
    <path
       inkscape:connector-curvature="0"
       id="path3759"
       d="m 19.873037,6.4344287 -1.799254,-0.00969 0.160883,-0.1357749 c 0.558323,-0.4711889 1.169905,-1.2581226 2.064291,-2.6561639 1.037569,-1.6218529 1.559877,-2.2433304 2.302047,-2.73912945 0.30253,-0.20210291 0.801215,-0.40641019 1.104828,-0.45263907 l 0.08707,-0.0132588 V 3.4405537 6.45333 L 22.732592,6.44872 C 22.149424,6.44619 20.862619,6.43976 19.87303,6.434427 Z"
       style="stroke-width:0.01976037;fill:#800000;stroke:#800000;stroke-opacity:1" />
  </g>
  <rect
     id="rect3715-3-5"
     width="24.053616"
     height="2.3370473"
     x="-4.7683716e-07"
     y="12.161915"
     style="stroke-width:0.51507872;fill:#800000" />
  <rect
     id="rect3715-3-5-5"
     width="24.053616"
     height="2.4449112"
     x="9.5367432e-07"
     y="16.656252"
     style="stroke-width:0.52683109;fill:#800000" />
  <rect
     id="rect3715-3-7-6"
     width="24.053616"
     height="2.6965933"
     x="0"
     y="21.258471"
     style="stroke-width:0.55328327;fill:#800000" />
</svg>
