<?xml version="1.0" encoding="UTF-8" standalone="no"?>
<svg
   xmlns:dc="http://purl.org/dc/elements/1.1/"
   xmlns:cc="http://creativecommons.org/ns#"
   xmlns:rdf="http://www.w3.org/1999/02/22-rdf-syntax-ns#"
   xmlns:svg="http://www.w3.org/2000/svg"
   xmlns="http://www.w3.org/2000/svg"
   id="svg8"
   version="1.1"
   viewBox="0 0 200 200"
   height="200mm"
   width="200mm">
  <defs
     id="defs2" />
  <metadata
     id="metadata5">
    <rdf:RDF>
      <cc:Work
         rdf:about="">
        <dc:format>image/svg+xml</dc:format>
        <dc:type
           rdf:resource="http://purl.org/dc/dcmitype/StillImage" />
        <dc:title></dc:title>
      </cc:Work>
    </rdf:RDF>
  </metadata>
  <g
     transform="translate(0,-97)"
     id="layer1">
    <path
       transform="matrix(1.4892624,0,0,1.4739396,-1.4775758,-139.33856)"
       d="M 122.87773,284.27163 C 111.16901,296.08489 24.541635,296.4699 12.728374,284.76118 0.91511247,273.05246 0.53010208,186.42509 12.238821,174.61183 c 11.70872,-11.81326 98.336089,-12.19827 110.149349,-0.48956 11.81326,11.70872 12.19827,98.33609 0.48956,110.14936 z"
       id="path981"
       style="fill:#008080;fill-opacity:1;stroke:#000000;stroke-width:1.34990915;stroke-miterlimit:4;stroke-dasharray:none;stroke-opacity:1" />
    <path
       transform="matrix(0.56443095,0,0,0.5586236,58.33887,72.232935)"
       d="M 122.87773,284.27163 C 111.16901,296.08489 24.541635,296.4699 12.728374,284.76118 0.91511247,273.05246 0.53010208,186.42509 12.238821,174.61183 c 11.70872,-11.81326 98.336089,-12.19827 110.149349,-0.48956 11.81326,11.70872 12.19827,98.33609 0.48956,110.14936 z"
       id="path981-3"
       style="fill:#ffffff;fill-opacity:1;stroke:#000000;stroke-width:3.56176241;stroke-miterlimit:4;stroke-dasharray:none;stroke-opacity:1" />
  </g>
</svg>
