<?xml version="1.0" encoding="UTF-8" standalone="no"?>
<svg
   xmlns:dc="http://purl.org/dc/elements/1.1/"
   xmlns:cc="http://creativecommons.org/ns#"
   xmlns:rdf="http://www.w3.org/1999/02/22-rdf-syntax-ns#"
   xmlns:svg="http://www.w3.org/2000/svg"
   xmlns="http://www.w3.org/2000/svg"
   id="svg8"
   version="1.1"
   viewBox="0 0 200 200"
   height="200mm"
   width="200mm">
  <defs
     id="defs2" />
  <metadata
     id="metadata5">
    <rdf:RDF>
      <cc:Work
         rdf:about="">
        <dc:format>image/svg+xml</dc:format>
        <dc:type
           rdf:resource="http://purl.org/dc/dcmitype/StillImage" />
        <dc:title></dc:title>
      </cc:Work>
    </rdf:RDF>
  </metadata>
  <g
     transform="translate(0,-97)"
     id="layer1">
    <path
       transform="matrix(0.79407546,0.60781918,-0.63995568,0.83605966,158.10553,-49.317095)"
       d="m 159.32374,294.52059 c -8.02639,5.74246 -49.7458,-26.7195 -59.614625,-26.79155 -9.868822,-0.072 -52.057742,31.77734 -59.999438,25.9183 -7.941696,-5.85903 10.039456,-55.56785 7.058344,-64.97592 C 43.786909,219.26335 0.459251,188.9813 3.5774056,179.61776 6.69556,170.25422 59.527934,171.99444 67.554327,166.25198 c 8.026392,-5.74246 23.437348,-56.30718 33.306173,-56.23513 9.86882,0.072 24.53987,50.85638 32.48156,56.71541 7.9417,5.85904 60.79385,4.89037 63.77496,14.29844 2.98112,9.40807 -40.78405,39.05429 -43.90221,48.41783 -3.11815,9.36355 14.13532,59.3296 6.10893,65.07206 z"
       id="path924"
       style="fill:#00ff00;fill-opacity:1;stroke:#000000;stroke-width:1.26693869;stroke-miterlimit:4;stroke-dasharray:none;stroke-opacity:1" />
    <path
       transform="matrix(0.24390618,0.18669618,-0.19656714,0.25680194,119.87192,116.94036)"
       d="m 159.32374,294.52059 c -8.02639,5.74246 -49.7458,-26.7195 -59.614625,-26.79155 -9.868822,-0.072 -52.057742,31.77734 -59.999438,25.9183 -7.941696,-5.85903 10.039456,-55.56785 7.058344,-64.97592 C 43.786909,219.26335 0.459251,188.9813 3.5774056,179.61776 6.69556,170.25422 59.527934,171.99444 67.554327,166.25198 c 8.026392,-5.74246 23.437348,-56.30718 33.306173,-56.23513 9.86882,0.072 24.53987,50.85638 32.48156,56.71541 7.9417,5.85904 60.79385,4.89037 63.77496,14.29844 2.98112,9.40807 -40.78405,39.05429 -43.90221,48.41783 -3.11815,9.36355 14.13532,59.3296 6.10893,65.07206 z"
       id="path924-5"
       style="fill:#000000;fill-opacity:1;stroke:#000000;stroke-width:1.26693869;stroke-miterlimit:4;stroke-dasharray:none;stroke-opacity:1" />
  </g>
</svg>
