<?xml version="1.0" encoding="UTF-8" standalone="no"?>
<svg
   xmlns:dc="http://purl.org/dc/elements/1.1/"
   xmlns:cc="http://creativecommons.org/ns#"
   xmlns:rdf="http://www.w3.org/1999/02/22-rdf-syntax-ns#"
   xmlns:svg="http://www.w3.org/2000/svg"
   xmlns="http://www.w3.org/2000/svg"
   id="svg8"
   version="1.1"
   viewBox="0 0 200 200"
   height="200mm"
   width="200mm">
  <defs
     id="defs2" />
  <metadata
     id="metadata5">
    <rdf:RDF>
      <cc:Work
         rdf:about="">
        <dc:format>image/svg+xml</dc:format>
        <dc:type
           rdf:resource="http://purl.org/dc/dcmitype/StillImage" />
        <dc:title></dc:title>
      </cc:Work>
    </rdf:RDF>
  </metadata>
  <g
     transform="translate(0,-97)"
     id="layer1">
    <path
       transform="matrix(1.1711906,0,0,1.0945384,20.010804,-52.288094)"
       d="M 122.87773,284.27163 C 111.16901,296.08489 24.541635,296.4699 12.728374,284.76118 0.91511247,273.05246 0.53010208,186.42509 12.238821,174.61183 c 11.70872,-11.81326 98.336089,-12.19827 110.149349,-0.48956 11.81326,11.70872 12.19827,98.33609 0.48956,110.14936 z"
       id="path981"
       style="fill:#d38d5f;fill-opacity:1;stroke:#000000;stroke-width:1.34990919;stroke-miterlimit:4;stroke-dasharray:none;stroke-opacity:1" />
    <path
       d="m 97.910531,224.55081 c -5.54172,0 -25.950911,-20.40919 -25.950911,-25.95091 -10e-7,-5.54172 20.40919,-25.95091 25.950909,-25.95091 5.541721,0 25.950911,20.40919 25.950911,25.95091 0,5.54172 -20.40919,25.95091 -25.950909,25.95091 z"
       id="path1019"
       style="fill:#4d4d4d;fill-opacity:1;stroke:#000000;stroke-width:2;stroke-miterlimit:4;stroke-dasharray:none;stroke-opacity:1" />
  </g>
</svg>
