<?xml version="1.0" encoding="UTF-8" standalone="no"?>
<svg
   xmlns:dc="http://purl.org/dc/elements/1.1/"
   xmlns:cc="http://creativecommons.org/ns#"
   xmlns:rdf="http://www.w3.org/1999/02/22-rdf-syntax-ns#"
   xmlns:svg="http://www.w3.org/2000/svg"
   xmlns="http://www.w3.org/2000/svg"
   xmlns:sodipodi="http://sodipodi.sourceforge.net/DTD/sodipodi-0.dtd"
   xmlns:inkscape="http://www.inkscape.org/namespaces/inkscape"
   width="24"
   height="24"
   viewBox="0 0 24 24"
   version="1.1"
   id="svg4"
   sodipodi:docname="gauge_both.svg"
   inkscape:version="0.92.5 (2060ec1f9f, 2020-04-08)">
  <metadata
     id="metadata10">
    <rdf:RDF>
      <cc:Work
         rdf:about="">
        <dc:format>image/svg+xml</dc:format>
        <dc:type
           rdf:resource="http://purl.org/dc/dcmitype/StillImage" />
        <dc:title></dc:title>
      </cc:Work>
    </rdf:RDF>
  </metadata>
  <defs
     id="defs8" />
  <sodipodi:namedview
     pagecolor="#ffffff"
     bordercolor="#666666"
     borderopacity="1"
     objecttolerance="10"
     gridtolerance="10"
     guidetolerance="10"
     inkscape:pageopacity="0"
     inkscape:pageshadow="2"
     inkscape:window-width="1920"
     inkscape:window-height="1136"
     id="namedview6"
     showgrid="false"
     inkscape:zoom="32"
     inkscape:cx="4.5464418"
     inkscape:cy="12.05509"
     inkscape:window-x="0"
     inkscape:window-y="27"
     inkscape:window-maximized="1"
     inkscape:current-layer="layer11" />
  <g
     inkscape:groupmode="layer"
     id="layer1"
     inkscape:label="back"
     sodipodi:insensitive="true"
     style="display:none">
    <path
       d="M 12,0 C 7.13,7.197 4,11.699 4,16.075 4,20.453 7.579,24 12,24 16.421,24 20,20.453 20,16.075 20,11.699 16.87,7.197 12,0 Z M 11.973,5.12 C 12.44,5.845 13,7.107 13,8.44 13,12.348 9,12.988 9,10.61 9,8.977 10.988,6.566 11.973,5.12 Z"
       id="path2"
       inkscape:connector-curvature="0" />
    <path
       style="fill:#000000;fill-opacity:1;stroke:none;stroke-width:0.27178267;stroke-miterlimit:4;stroke-dasharray:none;stroke-opacity:1"
       d="M 10.026625,11.953277 C 9.8035655,11.909304 9.455411,11.711934 9.3382912,11.563057 8.7773943,10.850073 8.9574384,9.7910152 9.9154247,8.1682325 10.249564,7.6022167 10.459268,7.2893434 11.288416,6.1197574 l 0.683296,-0.9638479 0.108049,0.1728471 c 0.297138,0.4753344 0.608555,1.265165 0.763017,1.9351989 0.132453,0.5745596 0.163261,1.4467035 0.07067,2.0004613 -0.197723,1.1824732 -0.821026,2.0927522 -1.721533,2.5141502 -0.388377,0.181744 -0.809399,0.244867 -1.165286,0.17471 z"
       id="path860"
       inkscape:connector-curvature="0" />
    <path
       style="fill:#000000;fill-opacity:1;stroke:#000000;stroke-width:0.27178267;stroke-miterlimit:4;stroke-dasharray:none;stroke-opacity:1"
       d="M 9.8711402,11.889783 C 8.9983029,11.536144 8.8138602,10.620803 9.3516049,9.3114655 9.6516091,8.5809947 10.139538,7.7827232 11.237787,6.2255953 l 0.731953,-1.0377829 0.120034,0.1928502 c 0.27236,0.4375813 0.630242,1.3767399 0.750683,1.9699496 0.133141,0.6557659 0.126037,1.6975892 -0.0153,2.2437077 -0.282752,1.0925381 -0.922357,1.8854661 -1.798146,2.2291861 -0.35758,0.140339 -0.896768,0.171256 -1.1558718,0.06628 z"
       id="path862"
       inkscape:connector-curvature="0" />
  </g>
  <g
     inkscape:groupmode="layer"
     id="layer2"
     inkscape:label="front"
     sodipodi:insensitive="true"
     style="display:none">
    <path
       inkscape:connector-curvature="0"
       d="M 12.0417,2.5135392 C 7.949613,8.5629308 5.3195854,12.347059 5.3195854,16.025277 c 0,3.679899 3.0073061,6.661307 6.7221146,6.661307 3.714809,0 6.722116,-2.981408 6.722116,-6.661307 0,-3.678218 -2.630029,-7.4623462 -6.722116,-13.5117378 z M 12.01901,6.817122 c 0.392405,0.6093941 0.862951,1.67016 0.862951,2.7906045 0,3.2848455 -3.3610564,3.8227905 -3.3610564,1.8239795 0,-1.372608 1.6704454,-3.399158 2.4981054,-4.614584 z"
       id="path2-3"
       style="fill:#ffffff;stroke-width:0.84040397" />
    <path
       style="fill:#ffffff;fill-opacity:1;stroke:#ffffff;stroke-width:0.29256526;stroke-miterlimit:4;stroke-dasharray:none;stroke-opacity:1"
       d="M 10.026629,12.775631 C 9.3762951,12.534795 9.0747479,11.907977 9.1888326,11.034124 9.2774022,10.355708 9.7096384,9.2976539 10.329352,8.2422913 10.64126,7.7111163 12.019803,5.571754 12.072778,5.536666 c 0.04907,-0.032497 0.540575,1.0764308 0.685516,1.5466384 0.215064,0.6976916 0.298309,1.2436283 0.298917,1.9603354 7.93e-4,0.9365279 -0.175622,1.7120412 -0.540965,2.3780532 -0.229395,0.418184 -0.759556,0.967382 -1.118053,1.158205 -0.508878,0.270866 -0.985146,0.338833 -1.371564,0.195733 z"
       id="path870"
       inkscape:connector-curvature="0" />
  </g>
  <g
     inkscape:groupmode="layer"
     id="layer3"
     inkscape:label="blues"
     style="display:none"
     sodipodi:insensitive="true">
    <ellipse
       style="fill:#000000;fill-opacity:1;stroke:none;stroke-width:22.17289543;stroke-miterlimit:4;stroke-dasharray:none;stroke-opacity:1"
       id="path822"
       cx="12.076271"
       cy="15.508473"
       rx="3.5338984"
       ry="3.6101694" />
  </g>
  <g
     inkscape:groupmode="layer"
     id="layer7"
     inkscape:label="GaugeStreamColor"
     style="display:inline"
     sodipodi:insensitive="true">
    <path
       style="fill:#006eee;fill-opacity:1;stroke:none;stroke-width:1px;stroke-linecap:butt;stroke-linejoin:miter;stroke-opacity:1"
       d="m 8.8215885,12.566443 c 1.1865005,-0.107864 4.2426365,-2.193229 5.2673415,-2.211207 1.024706,-0.01798 3.721299,2.265139 5.195437,2.229184 l 0.03453,10.802928 H 8.9308765 Z"
       id="path1216"
       inkscape:connector-curvature="0"
       sodipodi:nodetypes="cccccc" />
  </g>
  <g
     inkscape:groupmode="layer"
     id="layer8"
     inkscape:label="GaugeStreamLines"
     style="display:inline"
     sodipodi:insensitive="true">
    <path
       style="display:inline;fill:none;stroke:#000000;stroke-width:1px;stroke-linecap:butt;stroke-linejoin:miter;stroke-opacity:1"
       d="M 16.376217,5.9043677 H 18.91859"
       id="path846-6-6"
       inkscape:connector-curvature="0" />
    <path
       style="display:inline;fill:none;stroke:#000000;stroke-width:1px;stroke-linecap:butt;stroke-linejoin:miter;stroke-opacity:1"
       d="M 16.376217,7.9043677 H 18.91859"
       id="path846-6-7-1"
       inkscape:connector-curvature="0" />
    <path
       style="display:inline;fill:none;stroke:#000000;stroke-width:1px;stroke-linecap:butt;stroke-linejoin:miter;stroke-opacity:1"
       d="M 16.376217,9.9043677 H 18.91859"
       id="path846-6-7-5-8"
       inkscape:connector-curvature="0" />
    <path
       style="display:inline;fill:none;stroke:#000000;stroke-width:1px;stroke-linecap:butt;stroke-linejoin:miter;stroke-opacity:1"
       d="M 16.376217,13.904368 H 18.91859"
       id="path846-6-7-5-3-5-7"
       inkscape:connector-curvature="0" />
    <path
       style="display:inline;fill:none;stroke:#000000;stroke-width:1px;stroke-linecap:butt;stroke-linejoin:miter;stroke-opacity:1"
       d="M 16.376217,15.904367 H 18.91859"
       id="path846-6-7-5-3-5-6-9"
       inkscape:connector-curvature="0" />
    <path
       style="display:inline;fill:none;stroke:#000000;stroke-width:1px;stroke-linecap:butt;stroke-linejoin:miter;stroke-opacity:1"
       d="M 16.376217,19.904367 H 18.91859"
       id="path846-6-7-5-3-5-6-2-9-2"
       inkscape:connector-curvature="0" />
    <path
       style="display:inline;fill:none;stroke:#000000;stroke-width:1px;stroke-linecap:butt;stroke-linejoin:miter;stroke-opacity:1"
       d="m 13.893163,5.9047441 h 2.542373"
       id="path846-6-7-2-0"
       inkscape:connector-curvature="0" />
    <path
       style="display:inline;fill:none;stroke:#000000;stroke-width:1px;stroke-linecap:butt;stroke-linejoin:miter;stroke-opacity:1"
       d="m 16.37199,11.925536 h 2.542373"
       id="path846-6-7-9-2"
       inkscape:connector-curvature="0" />
    <path
       style="display:inline;fill:none;stroke:#000000;stroke-width:1px;stroke-linecap:butt;stroke-linejoin:miter;stroke-opacity:1"
       d="m 13.888936,11.922586 h 2.542373"
       id="path846-6-7-2-3-3"
       inkscape:connector-curvature="0" />
    <path
       style="display:inline;fill:none;stroke:#000000;stroke-width:1px;stroke-linecap:butt;stroke-linejoin:miter;stroke-opacity:1"
       d="m 16.355043,17.891655 h 2.542373"
       id="path846-6-7-9-0-7"
       inkscape:connector-curvature="0" />
    <path
       style="display:inline;fill:none;stroke:#000000;stroke-width:1px;stroke-linecap:butt;stroke-linejoin:miter;stroke-opacity:1"
       d="m 13.871989,17.888705 h 2.542373"
       id="path846-6-7-2-3-6-5"
       inkscape:connector-curvature="0" />
  </g>
  <g
     inkscape:groupmode="layer"
     id="layer9"
     inkscape:label="GaugeStreamWhite"
     sodipodi:insensitive="true"
     style="display:none" />
  <g
     inkscape:groupmode="layer"
     id="layer6"
     inkscape:label="GaugeStream2"
     style="display:inline"
     sodipodi:insensitive="true">
    <path
       style="display:inline;fill:none;stroke:#000000;stroke-width:1.5;stroke-linecap:round;stroke-linejoin:miter;stroke-miterlimit:4;stroke-dasharray:none;stroke-opacity:1"
       d="m 8.9474295,12.459229 c 2.6606345,-0.04446 3.0039995,-2.145314 5.2502625,-2.154335 2.246263,-0.009 2.857491,2.161121 5.086675,2.152169 2.229184,-0.009 1.995479,-2.129984 3.937026,-2.137782"
       id="path1149-9"
       inkscape:connector-curvature="0"
       sodipodi:nodetypes="cccc" />
  </g>
  <g
     inkscape:groupmode="layer"
     id="layer5"
     inkscape:label="GaugeStream"
     style="display:inline"
     sodipodi:insensitive="true">
    <rect
       style="fill:none;fill-opacity:1;stroke:#000000;stroke-width:0.96184772;stroke-miterlimit:4;stroke-dasharray:none;stroke-opacity:1"
       id="rect1097"
       width="7.619523"
       height="22.792356"
       x="11.699375"
       y="0.59499127" />
    <path
       style="display:inline;fill:none;stroke:#000000;stroke-width:1px;stroke-linecap:butt;stroke-linejoin:miter;stroke-opacity:1"
       d="m 16.40164,4.0060627 h 2.542373"
       id="path846-2"
       inkscape:connector-curvature="0" />
    <path
       style="fill:none;stroke:#006eee;stroke-width:1px;stroke-linecap:round;stroke-linejoin:miter;stroke-opacity:1"
       d="m 8.9474295,12.459229 c 2.6606345,-0.04446 3.0039995,-2.145314 5.2502625,-2.154335 2.246263,-0.009 2.857491,2.161121 5.086675,2.152169 2.229184,-0.009 1.995479,-2.129984 3.937026,-2.137782"
       id="path1149"
       inkscape:connector-curvature="0"
       sodipodi:nodetypes="cccc" />
    <path
       style="fill:#ffffff;fill-opacity:1;stroke:none;stroke-width:0.00254237;stroke-linecap:round;stroke-miterlimit:4;stroke-dasharray:none;stroke-opacity:1"
       d="m 18.077905,11.376617 c -0.291246,-0.183228 -0.555667,-0.36694 -0.916065,-0.636456 l -0.430306,-0.321794 h 1.046831 1.046831 v 0.495762 0.495763 l -0.349576,-0.0015 c -0.224085,-9.59e-4 -0.366857,-0.01237 -0.397715,-0.03178 z"
       id="path1233"
       inkscape:connector-curvature="0" />
  </g>
  <g
     inkscape:groupmode="layer"
     id="layer10"
     inkscape:label="GaugePrecipBack"
     style="display:inline"
     sodipodi:insensitive="true">
    <path
       style="fill:#ffffff;fill-opacity:1;stroke:none;stroke-width:1.11169147px;stroke-linecap:butt;stroke-linejoin:miter;stroke-opacity:1"
       d="M 8.9027267,0.59356745 H 2.4596885 c 0,0 -1.0219992,-0.57527331 0,0.0359546 C 3.4816879,1.2407499 4.6369914,2.2115236 4.6369914,3.1822973 V 19.757359 c 0,1.72582 1.5107814,2.912321 2.843824,3.271867 1.3330425,0.359546 4.9155256,0.345716 4.9155256,0.345716 V 0.66547663 Z"
       id="path1269"
       inkscape:connector-curvature="0"
       sodipodi:nodetypes="ccssssccc" />
  </g>
  <g
     inkscape:groupmode="layer"
     id="layer4"
     inkscape:label="GaugePrecip"
     style="display:inline"
     sodipodi:insensitive="true">
    <path
       style="fill:none;fill-opacity:1;stroke:#000000;stroke-width:0.95999998;stroke-linecap:butt;stroke-linejoin:miter;stroke-miterlimit:4;stroke-dasharray:none;stroke-opacity:1"
       d="m 1.7887945,0.61016982 c 0,0 2.135593,0.66101668 2.237288,2.28813568 0.101695,1.627118 0.05085,15.5084785 0.101695,17.1864445 0.05085,1.677966 1.5270047,3.301112 3.8173996,3.301112 1.749065,0 4.5410079,8.03e-4 4.5410079,8.03e-4"
       id="path821-3"
       inkscape:connector-curvature="0"
       sodipodi:nodetypes="cscsc" />
    <path
       style="fill:none;stroke:#000000;stroke-width:0.95999998;stroke-linecap:butt;stroke-linejoin:miter;stroke-miterlimit:4;stroke-dasharray:none;stroke-opacity:1"
       d="M 12.434477,0.59556138 1.8904885,0.61016982"
       id="path838"
       inkscape:connector-curvature="0"
       sodipodi:nodetypes="cc" />
    <path
       style="fill:none;stroke:#000000;stroke-width:1px;stroke-linecap:butt;stroke-linejoin:miter;stroke-opacity:1"
       d="M 6.9639185,3.6355936 H 4.4215455"
       id="path846"
       inkscape:connector-curvature="0" />
    <path
       style="display:inline;fill:none;stroke:#000000;stroke-width:1px;stroke-linecap:butt;stroke-linejoin:miter;stroke-opacity:1"
       d="M 6.9893415,5.5338986 H 4.4469685"
       id="path846-6"
       inkscape:connector-curvature="0" />
    <path
       style="display:inline;fill:none;stroke:#000000;stroke-width:1px;stroke-linecap:butt;stroke-linejoin:miter;stroke-opacity:1"
       d="M 6.9893415,7.5338986 H 4.4469685"
       id="path846-6-7"
       inkscape:connector-curvature="0" />
    <path
       style="display:inline;fill:none;stroke:#000000;stroke-width:1px;stroke-linecap:butt;stroke-linejoin:miter;stroke-opacity:1"
       d="M 6.9893415,9.5338986 H 4.4469685"
       id="path846-6-7-5"
       inkscape:connector-curvature="0" />
    <path
       style="display:inline;fill:none;stroke:#000000;stroke-width:1px;stroke-linecap:butt;stroke-linejoin:miter;stroke-opacity:1"
       d="M 6.9893415,11.533899 H 4.4469685"
       id="path846-6-7-5-3"
       inkscape:connector-curvature="0" />
    <path
       style="display:inline;fill:none;stroke:#000000;stroke-width:1px;stroke-linecap:butt;stroke-linejoin:miter;stroke-opacity:1"
       d="M 6.9893415,13.533899 H 4.4469685"
       id="path846-6-7-5-3-5"
       inkscape:connector-curvature="0" />
    <path
       style="display:inline;fill:none;stroke:#000000;stroke-width:1px;stroke-linecap:butt;stroke-linejoin:miter;stroke-opacity:1"
       d="M 6.9893415,15.533899 H 4.4469685"
       id="path846-6-7-5-3-5-6"
       inkscape:connector-curvature="0" />
    <path
       style="display:inline;fill:none;stroke:#000000;stroke-width:1px;stroke-linecap:butt;stroke-linejoin:miter;stroke-opacity:1"
       d="M 6.9893415,17.533899 H 4.4469685"
       id="path846-6-7-5-3-5-6-2"
       inkscape:connector-curvature="0" />
    <path
       style="display:inline;fill:none;stroke:#000000;stroke-width:1px;stroke-linecap:butt;stroke-linejoin:miter;stroke-opacity:1"
       d="M 6.9893415,19.533899 H 4.4469685"
       id="path846-6-7-5-3-5-6-2-9"
       inkscape:connector-curvature="0" />
    <path
       style="display:inline;fill:none;stroke:#000000;stroke-width:1px;stroke-linecap:butt;stroke-linejoin:miter;stroke-opacity:1"
       d="M 9.472394,5.534275 H 6.9300225"
       id="path846-6-7-2"
       inkscape:connector-curvature="0" />
    <path
       style="display:inline;fill:none;stroke:#000000;stroke-width:1px;stroke-linecap:butt;stroke-linejoin:miter;stroke-opacity:1"
       d="M 9.476621,11.535545 H 6.9342495"
       id="path846-6-7-2-3"
       inkscape:connector-curvature="0" />
    <path
       style="display:inline;fill:none;stroke:#000000;stroke-width:1px;stroke-linecap:butt;stroke-linejoin:miter;stroke-opacity:1"
       d="M 7.0105155,17.521187 H 4.4681425"
       id="path846-6-7-9-0"
       inkscape:connector-curvature="0" />
    <path
       style="display:inline;fill:none;stroke:#000000;stroke-width:1px;stroke-linecap:butt;stroke-linejoin:miter;stroke-opacity:1"
       d="M 9.493568,17.529285 H 6.9511965"
       id="path846-6-7-2-3-6"
       inkscape:connector-curvature="0" />
  </g>
  <g
     inkscape:groupmode="layer"
     id="layer11"
     inkscape:label="GaugePrecipSplit">
    <path
       style="fill:none;stroke:#000000;stroke-width:0.5;stroke-linecap:butt;stroke-linejoin:miter;stroke-miterlimit:4;stroke-dasharray:none;stroke-opacity:1"
       d="M 12.177591,0.66547663 V 23.374942"
       id="path1272"
       inkscape:connector-curvature="0" />
    <path
       style="fill:#b3b3b3;fill-opacity:1;stroke:none;stroke-width:0.015625;stroke-linecap:round;stroke-miterlimit:4;stroke-dasharray:none;stroke-opacity:1"
       d="m 7.4965924,22.86683 c -1.3811305,-0.145636 -2.507567,-1.064464 -2.7998978,-2.283861 -0.034273,-0.142964 -0.062413,-0.3197 -0.062534,-0.392747 l -2.19e-4,-0.132812 h 1.1875 1.1875 V 19.541785 19.02616 H 5.8058168 4.6026918 V 18.541785 18.05741 h 2.453125 2.453125 V 17.541785 17.02616 l -0.6484375,-3e-5 c -0.3566406,-1.6e-5 -1.4605469,-0.0094 -2.453125,-0.02074 L 4.6026918,16.984671 V 16.52104 16.05741 h 1.203125 1.203125 V 15.541785 15.02616 H 5.8058168 4.6026918 V 14.541785 14.05741 h 1.203125 1.203125 V 13.541785 13.02616 H 5.8058168 4.6026918 V 12.541785 12.05741 h 2.4375 2.4375 V 11.541785 11.02616 h -2.4375 -2.4375 V 10.541785 10.05741 h 1.203125 1.203125 V 9.5417846 9.0261596 h -1.21875 -1.21875 v -0.484375 -0.484375 h 1.21875 1.21875 v -0.515625 -0.515625 h -1.21875 -1.21875 v -0.484375 -0.484375 h 2.453125 2.453125 V 5.5417846 5.0261596 H 7.0245668 4.5714418 L 4.5712199,4.7995971 C 4.5710981,4.6749877 4.562033,4.4781127 4.551076,4.3620971 L 4.531154,4.1511596 H 5.7544229 6.9776918 V 3.6355346 3.1199096 H 5.7608566 4.5440214 L 4.5275934,2.9870971 C 4.518558,2.9140502 4.5024687,2.7721985 4.4918394,2.671871 4.4437916,2.2183599 4.2167084,1.7584807 3.8142257,1.2995971 L 3.6292144,1.0886596 H 7.7722031 11.915192 V 11.99491 22.90116 L 9.8292543,22.89696 C 8.6819887,22.89466 7.6322909,22.8811 7.4965924,22.86679 Z"
       id="path1274"
       inkscape:connector-curvature="0" />
  </g>
</svg>
