<?xml version="1.0" encoding="UTF-8" standalone="no"?>
<svg
   xmlns:dc="http://purl.org/dc/elements/1.1/"
   xmlns:cc="http://creativecommons.org/ns#"
   xmlns:rdf="http://www.w3.org/1999/02/22-rdf-syntax-ns#"
   xmlns:svg="http://www.w3.org/2000/svg"
   xmlns="http://www.w3.org/2000/svg"
   xmlns:sodipodi="http://sodipodi.sourceforge.net/DTD/sodipodi-0.dtd"
   xmlns:inkscape="http://www.inkscape.org/namespaces/inkscape"
   width="24"
   height="24"
   viewBox="0 0 24 24"
   version="1.1"
   id="svg4"
   sodipodi:docname="warning_Qnowarning.svg"
   inkscape:version="0.92.5 (2060ec1f9f, 2020-04-08)">
  <metadata
     id="metadata10">
    <rdf:RDF>
      <cc:Work
         rdf:about="">
        <dc:format>image/svg+xml</dc:format>
        <dc:type
           rdf:resource="http://purl.org/dc/dcmitype/StillImage" />
        <dc:title />
      </cc:Work>
    </rdf:RDF>
  </metadata>
  <defs
     id="defs8" />
  <sodipodi:namedview
     pagecolor="#ffffff"
     bordercolor="#666666"
     borderopacity="1"
     objecttolerance="10"
     gridtolerance="10"
     guidetolerance="10"
     inkscape:pageopacity="0"
     inkscape:pageshadow="2"
     inkscape:window-width="1920"
     inkscape:window-height="1102"
     id="namedview6"
     showgrid="false"
     inkscape:zoom="27.812867"
     inkscape:cx="-0.68887814"
     inkscape:cy="13.06907"
     inkscape:window-x="0"
     inkscape:window-y="0"
     inkscape:window-maximized="1"
     inkscape:current-layer="svg4" />
  <rect
     id="rect3715"
     width="24.053616"
     height="3.4156852"
     x="0"
     y="12.476662"
     style="stroke-width:0.6226998;fill:#00aaff;fill-opacity:1;stroke:#00aaff;stroke-opacity:1" />
  <path
     style="fill:#00aaff;stroke:#00aaff;stroke-width:1px;stroke-linecap:butt;stroke-linejoin:miter;stroke-opacity:1;fill-opacity:1"
     d="m 0,12.47666 c 4.0269132,-0.0045 4.0089158,-6.1347752 8.0358491,-6.1347752 3.9550039,0 4.0089359,6.1122762 7.9998949,6.1122762 3.990958,0 3.631413,-6.1122762 7.658326,-6.1122762 0.03595,0.2337048 -0.05393,5.1235252 -0.05393,6.2201402 -1.276388,-0.03596 -8.269554,-0.03595 -10.318965,-0.03595 -2.049414,0 -8.0897843,-0.0089 -13.321176,-0.04941 z"
     id="path3755"
     inkscape:connector-curvature="0"
     sodipodi:nodetypes="cssccsc" />
  <path
     style="stroke-width:0.01998989;fill:#00aaff;fill-opacity:1;stroke:#00aaff;stroke-opacity:1"
     d="m 6.7675411,12.396009 c -1.8564898,-0.0073 -3.678584,-0.01456 -4.0490982,-0.01618 l -0.6736623,-0.0029 0.167185,-0.167009 C 2.7721011,11.65033 3.2601207,10.954117 4.1524464,9.4415726 4.9917597,8.0188847 5.3485134,7.5037239 5.8489176,6.9918259 6.3768792,6.4517374 6.9260319,6.1424224 7.5571168,6.0296677 7.8215831,5.9824157 8.3180442,5.9821207 8.5723813,6.029064 c 0.659181,0.1216655 1.229907,0.463585 1.7975987,1.076934 0.437378,0.4725535 0.812069,1.0219963 1.578936,2.3153311 0.92937,1.5673949 1.278948,2.0655729 1.899941,2.7075729 l 0.279031,0.288471 -1.992456,-0.0041 c -1.09585,-0.0022 -3.5114013,-0.01002 -5.3678909,-0.0173 z"
     id="path3757"
     inkscape:connector-curvature="0" />
  <path
     style="stroke-width:0.01976037;fill:#00aaff;fill-opacity:1;stroke:#00aaff;stroke-opacity:1"
     d="m 19.873037,12.218699 -1.799254,-0.0097 0.160883,-0.135775 c 0.558323,-0.471189 1.169905,-1.258123 2.064291,-2.6561617 1.037569,-1.6218529 1.559877,-2.2433304 2.302047,-2.7391295 0.30253,-0.2021029 0.801215,-0.4064101 1.104828,-0.452639 l 0.08707,-0.013259 V 9.2248261 12.2376 L 22.732592,12.233 C 22.149424,12.2305 20.862619,12.224 19.87303,12.21871 Z"
     id="path3759"
     inkscape:connector-curvature="0" />
  <rect
     id="rect3715-3-5"
     width="24.053616"
     height="2.3370473"
     x="-4.7683716e-07"
     y="15.73046"
     style="stroke-width:0.51507872;fill:#00aaff;fill-opacity:1;stroke:#00aaff;stroke-opacity:1" />
</svg>
